<?xml version="1.0" encoding="iso-8859-1"?>
<!-- Generator: Adobe Illustrator 19.0.0, SVG Export Plug-In . SVG Version: 6.00 Build 0)  -->
<svg version="1.1" id="Layer_1" xmlns="http://www.w3.org/2000/svg" xmlns:xlink="http://www.w3.org/1999/xlink" x="0px" y="0px"
	 viewBox="0 0 512 512" style="enable-background:new 0 0 512 512;" xml:space="preserve">
<g>
	<circle style="fill:#FF7F4F;" cx="256" cy="256" r="256"/>
	<circle style="fill:#FF7F4F;" cx="256" cy="256" r="256"/>
</g>
<path style="fill:#E03A00;" d="M264.94,511.828c125.392-4.306,227.873-98.778,244.638-220.612l-58.704-58.704L59.978,278.626
	L218.65,437.298l-17.08,11.159L264.94,511.828z"/>
<path style="fill:#262625;" d="M440.601,284.444H71.397c-8.013,0-14.51-6.496-14.51-14.51v-27.87c0-8.013,6.496-14.51,14.51-14.51
	h369.204c8.013,0,14.51,6.496,14.51,14.51v27.87C455.111,277.949,448.615,284.444,440.601,284.444z"/>
<path style="fill:#232323;" d="M241.276,457.509l-30.82-3.784c-7.082-0.869-12.117-7.315-11.248-14.398l21.116-171.982
	c0.869-7.082,7.315-12.117,14.396-11.248l30.82,3.784c7.082,0.869,12.117,7.315,11.248,14.398l-21.116,171.982
	C254.804,453.342,248.358,458.378,241.276,457.509z"/>
<path style="fill:#565654;" d="M270.724,457.509l30.82-3.784c7.082-0.869,12.117-7.315,11.248-14.398l-21.116-171.982
	c-0.869-7.082-7.315-12.117-14.398-11.248l-30.82,3.784c-7.082,0.869-12.117,7.315-11.248,14.398l21.116,171.982
	C257.196,453.342,263.642,458.378,270.724,457.509z"/>
<path style="fill:#3D3D3D;" d="M285.234,302.114h-58.47c-7.418,0-13.433-6.013-13.433-13.433v-58.47
	c0-7.418,6.013-13.433,13.433-13.433h58.47c7.418,0,13.433,6.013,13.433,13.433v58.47
	C298.667,296.101,292.654,302.114,285.234,302.114z"/>
<path style="fill:#2D2D2D;" d="M285.234,216.781h-30.672v85.333h30.672c7.418,0,13.433-6.013,13.433-13.433v-58.47
	C298.667,222.794,292.654,216.781,285.234,216.781z"/>
<g>
</g>
<g>
</g>
<g>
</g>
<g>
</g>
<g>
</g>
<g>
</g>
<g>
</g>
<g>
</g>
<g>
</g>
<g>
</g>
<g>
</g>
<g>
</g>
<g>
</g>
<g>
</g>
<g>
</g>
</svg>
