<svg id="Capa_1" enable-background="new 0 0 503.698 503.698" height="512" viewBox="0 0 503.698 503.698" width="512" xmlns="http://www.w3.org/2000/svg"><path d="m398.261 458.479h-202.97c-4.142 0-7.5-3.358-7.5-7.5s3.358-7.5 7.5-7.5h202.97c4.143 0 7.5 3.358 7.5 7.5s-3.357 7.5-7.5 7.5z" fill="#6cf5c2"/><path d="m496.198 308.355h-188.622c-4.143 0-7.5-3.358-7.5-7.5s3.357-7.5 7.5-7.5h188.622c4.143 0 7.5 3.358 7.5 7.5s-3.358 7.5-7.5 7.5z" fill="#6cf5c2"/><path d="m356.602 273.369-10.24-10.12-291.4 168.25v15.28c0 6.46 5.24 11.7 11.7 11.7h128.63c2.14 0 4.2-.85 5.72-2.37l14.45-14.46c1.08-1.07 1.08-2.81 0-3.88l-3.33-3.33 25.8-25.81.84.84c2.29 2.29 6 2.29 8.29 0l16.34-16.34c2.29-2.29 2.29-6 0-8.29l-3.48-3.48 25.52-25.51 2.29 2.29c2.29 2.29 6 2.29 8.29 0l16.93-16.92c2.28-2.29 2.28-6.01 0-8.3l-2.88-2.87 19.26-19.27 3 3.01c2.29 2.29 6 2.29 8.29 0l16.26-16.85c6.38-6.61 6.26-17.12-.28-23.57z" fill="#acacac"/><g fill="#6cf5c2"><path d="m238.532 60.219h-90.345c-4.142 0-7.5-3.358-7.5-7.5s3.358-7.5 7.5-7.5h90.345c4.142 0 7.5 3.358 7.5 7.5s-3.358 7.5-7.5 7.5z"/><path d="m280.63 60.219h-13.059c-4.143 0-7.5-3.358-7.5-7.5s3.357-7.5 7.5-7.5h13.059c4.143 0 7.5 3.358 7.5 7.5s-3.357 7.5-7.5 7.5z"/><path d="m405.202 208.797h-149.77c-4.143 0-7.5-3.358-7.5-7.5s3.357-7.5 7.5-7.5h149.77c4.143 0 7.5 3.358 7.5 7.5s-3.358 7.5-7.5 7.5z"/></g><path d="m146.781 201.297-144.402-142.489c-5.052-4.985-1.522-13.589 5.576-13.589h147.557l65.639 99.006 8.655 15.353-55.886 67.68z" fill="#fed2a4"/><path d="m172.566 175.535-132.067-130.316h-32.545c-7.098 0-10.628 8.604-5.576 13.589l144.403 142.489 27.139 25.961 23.264-28.173z" fill="#ffbd86"/><path d="m187.278 256.225-41.292-46.652c-2.184-2.468-1.819-6.269.796-8.276l74.369-57.072c2.275-1.746 5.494-1.523 7.507.519l55.721 56.522 12.898 12.897-81.817 81.817z" fill="#ebebeb"/><path d="m297.277 214.163-12.897-12.897-15.445-15.667c-4.032 2.622-7.169 6.507-8.875 11.213-4.111 11.4-11.927 21.217-21.231 28.806-13.798 11.256-34.084 9.388-45.771-4.048l-26.896-30.922c-.814-.92-1.273-2.026-1.394-3.154l-17.887 13.727c-2.668 2.047-3.041 5.927-.812 8.445l28.159 31.814 13.05 14.744 28.182 39.755 19.657-19.657-3.565-5.029c4.755-1.338 9.31-3.022 13.649-5.055z" fill="#cecece"/><path d="m305.232 304.379 6.14-76.12-26.99-26.99c-2.33-2.33-6.27-1.44-7.39 1.65-10.54 29.23-29.07 47.24-56.65 52.55-9.85 1.9-70.69 93.38-70.69 93.38l-9.324 26.725c-.902 2.584-3.339 4.315-6.076 4.315h-49.37c-16.524 0-29.92 13.396-29.92 29.92v21.69h123.15l27.52-27.52 99.6-99.59" fill="#fe646f"/><path d="m172.916 375.574 9.324-26.725 30.87-88.42c.98-2.82 3.79-4.55 6.76-4.2 12.2 1.41 23.21 1.14 33.06-.76 22.045-4.244 38.302-16.611 49.324-36.327l-17.873-17.873c-2.33-2.33-6.27-1.44-7.39 1.65-10.54 29.23-29.07 47.24-56.65 52.55-9.85 1.9-70.69 93.38-70.69 93.38l-9.324 26.725c-.902 2.584-3.339 4.315-6.076 4.315h32.588c2.738 0 5.175-1.731 6.077-4.315z" fill="#fd4755"/><path d="m117.47 379.889h-32.588c-16.524 0-29.92 13.396-29.92 29.92v21.69h32.588v-21.69c0-16.525 13.396-29.92 29.92-29.92z" fill="#fd4755"/><path d="m346.362 263.249-41.13 41.13-14.35-15.07c-3.94-4.15-6.45-9.15-7.51-14.38-1.91-9.36.77-19.45 8.01-26.69l19.99-19.98z" fill="#ffd3d6"/><path d="m305.232 304.379v.01l-99.6 99.59 1.68-18.83c2.18-24.49 13-47.4 30.51-64.65l45.55-45.57c1.06 5.23 3.57 10.23 7.51 14.38z" fill="#fd8087"/><path d="m220.342 255.469-22.28 72.14c-4.08 12.82-15.98 21.53-29.44 21.53h-18.15l-.82-.29 30.87-88.42c.98-2.82 3.79-4.55 6.76-4.2 12.2 1.41 23.21 1.14 33.06-.76z" fill="#ffd3d6"/><path d="m185.521 287.179h-14.926c-4.142 0-7.5-3.358-7.5-7.5s3.358-7.5 7.5-7.5h14.926c4.142 0 7.5 3.358 7.5 7.5s-3.358 7.5-7.5 7.5z" fill="#ebebeb"/><path d="m179.872 308.355h-14.927c-4.142 0-7.5-3.358-7.5-7.5s3.358-7.5 7.5-7.5h14.927c4.142 0 7.5 3.358 7.5 7.5s-3.358 7.5-7.5 7.5z" fill="#ebebeb"/><path d="m173.872 329.301h-14.927c-4.142 0-7.5-3.358-7.5-7.5s3.358-7.5 7.5-7.5h14.927c4.142 0 7.5 3.358 7.5 7.5s-3.358 7.5-7.5 7.5z" fill="#ebebeb"/><path d="m375.424 421.266h-91.045c-4.143 0-7.5-3.358-7.5-7.5s3.357-7.5 7.5-7.5h91.045c4.143 0 7.5 3.358 7.5 7.5s-3.357 7.5-7.5 7.5z" fill="#6cf5c2"/><path d="m244.066 160.374-15.408-15.63c-2.013-2.042-5.233-2.265-7.508-.519l-74.369 57.072c-2.614 2.006-2.98 5.808-.796 8.276l14.798 16.719 1.81-1.773 78.316-61.563z" fill="#bfbfbf"/><path d="m166.162 190.649c-.814-.92-1.273-2.026-1.394-3.154l-17.887 13.727c-2.667 2.047-3.04 5.926-.812 8.444l3.409 3.852 11.307 12.775 1.81-1.772 19.616-15.42z" fill="#acacac"/></svg>