<svg height="512" viewBox="0 0 58 58" width="512" xmlns="http://www.w3.org/2000/svg"><g id="003---Learn-Language" fill="none"><path id="Shape" d="m16 46-10.4 7.8c-.30301765.2272632-.70842957.2638192-1.0472136.0944272-.33878402-.169392-.5527864-.5156551-.5527864-.8944272v-10z" fill="#e57e25"/><path id="Shape" d="m16 16.97-15.366-5.719c-.38449034-.1308053-.64057005-.4948597-.63372611-.9009336.00684394-.40607386.27504623-.76129211.66372611-.8790664l27.666-9.359c.4342359-.14902871.9057641-.14902871 1.34 0l27.666 9.379c.3886799.11777429.6568822.47299254.6637261.8790664.006844.4060739-.2492358.7701283-.6337261.9009336l-15.366 5.699z" fill="#393f4a"/><path id="Shape" d="m42 28v-14c0-2.21-5.82-4-13-4s-13 1.79-13 4v10z" fill="#464f5d"/><path id="Shape" d="m54 47v10c0 .3787721-.2140024.7250352-.5527864.8944272s-.744196.132836-1.0472136-.0944272l-10.4-7.8z" fill="#285680"/><path id="Shape" d="m58 26v22c-.0032948 1.1032019-.8967981 1.9967052-2 2h-27c-1.1032019-.0032948-1.9967052-.8967981-2-2 0-2.826-.585 1.219 4-24h25c1.1032019.0032948 1.9967052.8967981 2 2z" fill="#4482c3"/><rect id="Rectangle-path" fill="#f29c1f" height="26" rx="2" width="31" y="20"/><g fill="#fff"><path id="Shape" d="m43 46c-.5522847 0-1-.4477153-1-1v-16c0-.5522847.4477153-1 1-1s1 .4477153 1 1v16c0 .5522847-.4477153 1-1 1z"/><path id="Shape" d="m50 46c-.5522847 0-1-.4477153-1-1 .1249934-1.5138793-.2312802-3.0285672-1.018-4.328-.259 4.617-3.198 5.328-4.982 5.328-2.6196938.1277633-4.8520619-1.8813681-5-4.5.1479381-2.6186319 2.3803062-4.6277633 5-4.5 3.333 0 3 .612 3 0 0-.5522847.4477153-1 1-1s1 .4477153 1 1v1.036c1.769 1.041 3 3.074 3 6.964 0 .2652165-.1053568.5195704-.2928932.7071068s-.4418903.2928932-.7071068.2928932zm-7-7c-1.514088-.1231276-2.8480768.9885297-3 2.5.1519232 1.5114703 1.485912 2.6231276 3 2.5 2.654 0 3-2.045 3-4.661-.9784663-.2568305-1.9888948-.3710089-3-.339z"/><path id="Shape" d="m47 32h-8c-.5522847 0-1-.4477153-1-1s.4477153-1 1-1h8c.5522847 0 1 .4477153 1 1s-.4477153 1-1 1z"/><path id="Shape" d="m24 41c-.3708206.0004714-.7114561-.2042949-.885-.532l-7.131-13.456-7.1 13.456c-.25846926.4882197-.86378028.6744693-1.352.416s-.67446926-.8637803-.416-1.352l7.132-13.457c.3362777-.6568578 1.0120672-1.0700893 1.75-1.0700893s1.4137223.4132315 1.75 1.0700893l7.132 13.457c.163839.3093728.1539677.6818972-.0260257.982159-.1799934.3002617-.5038985.484537-.8539743.485841z"/><path id="Shape" d="m20.82 35h-9.64c-.5522847 0-1-.4477153-1-1s.4477153-1 1-1h9.64c.5522847 0 1 .4477153 1 1s-.4477153 1-1 1z"/></g><path id="Shape" d="m57 20c-.5522847 0-1-.4477153-1-1v-8.62c0-.55228475.4477153-1 1-1s1 .44771525 1 1v8.62c0 .5522847-.4477153 1-1 1z" fill="#f3d55b"/></g></svg>